<svg width="27" height="27" viewBox="0 0 27 27" fill="none" xmlns="http://www.w3.org/2000/svg">
<path d="M12.5999 8.09998C11.4768 8.44841 10.7999 9.42622 10.7999 10.35C10.7999 11.2738 11.4768 12.2516 12.5999 12.6V8.09998Z" fill="black"/>
<path d="M14.4 14.4V18.9C15.5231 18.5516 16.2 17.5739 16.2 16.65C16.2 15.7262 15.5231 14.7485 14.4 14.4Z" fill="black"/>
<path fill-rule="evenodd" clip-rule="evenodd" d="M27 13.5C27 20.9558 20.9558 27 13.5 27C6.04415 27 0 20.9558 0 13.5C0 6.04415 6.04415 0 13.5 0C20.9558 0 27 6.04415 27 13.5ZM13.5 4.3875C14.0592 4.3875 14.5125 4.84082 14.5125 5.4V5.82759C16.7135 6.2217 18.5625 7.87537 18.5625 10.125C18.5625 10.6842 18.1092 11.1375 17.55 11.1375C16.9908 11.1375 16.5375 10.6842 16.5375 10.125C16.5375 9.20908 15.776 8.23958 14.5125 7.8941V12.5775C16.7135 12.9717 18.5625 14.6254 18.5625 16.875C18.5625 19.1246 16.7135 20.7783 14.5125 21.1725V21.6C14.5125 22.1592 14.0592 22.6125 13.5 22.6125C12.9408 22.6125 12.4875 22.1592 12.4875 21.6V21.1725C10.2864 20.7783 8.4375 19.1246 8.4375 16.875C8.4375 16.3158 8.89082 15.8625 9.45 15.8625C10.0092 15.8625 10.4625 16.3158 10.4625 16.875C10.4625 17.791 11.224 18.7604 12.4875 19.1059V14.4225C10.2864 14.0283 8.4375 12.3746 8.4375 10.125C8.4375 7.87537 10.2864 6.2217 12.4875 5.82759V5.4C12.4875 4.84082 12.9408 4.3875 13.5 4.3875Z" fill="black"/>
</svg>
