<svg width="29" height="29" viewBox="0 0 29 29" fill="none" xmlns="http://www.w3.org/2000/svg">
<path d="M9.00547 3.27776C9.45831 2.12957 11.0833 2.12959 11.5361 3.27777L12.9394 6.83589C13.0776 7.18644 13.3552 7.46392 13.7057 7.60216L17.2638 9.00547C18.4121 9.45831 18.4121 11.0833 17.2638 11.5361L13.7057 12.9394C13.3552 13.0776 13.0776 13.3552 12.9394 13.7057L11.5361 17.2638C11.0833 18.4121 9.45831 18.4121 9.00547 17.2638L7.60216 13.7057C7.46392 13.3552 7.18644 13.0776 6.83589 12.9394L3.27776 11.5361C2.12957 11.0833 2.12959 9.45831 3.27777 9.00547L6.83589 7.60216C7.18644 7.46392 7.46392 7.18644 7.60216 6.83589L9.00547 3.27776Z" fill="#94BE74"/>
<path d="M20.4504 16.1815C20.6994 15.5507 21.5923 15.5507 21.8412 16.1815L22.9295 18.941C23.0055 19.1337 23.158 19.2862 23.3507 19.3622L26.1102 20.4504C26.741 20.6994 26.741 21.5923 26.1102 21.8412L23.3507 22.9295C23.158 23.0055 23.0055 23.158 22.9295 23.3507L21.8412 26.1102C21.5923 26.741 20.6994 26.741 20.4504 26.1102L19.3622 23.3507C19.2862 23.158 19.1337 23.0055 18.941 22.9295L16.1815 21.8412C15.5507 21.5923 15.5507 20.6994 16.1815 20.4504L18.941 19.3622C19.1337 19.2862 19.2862 19.1337 19.3622 18.941L20.4504 16.1815Z" fill="#94BE74"/>
</svg>
