<svg width="55" height="54" viewBox="0 0 55 54" fill="none" xmlns="http://www.w3.org/2000/svg">
<path d="M54 52.3389H1" stroke="#94BE74" stroke-width="2" stroke-linecap="round"/>
<path d="M1 23.1886L22.5336 5.96181C25.4372 3.63903 29.5628 3.63903 32.4664 5.96181L54 23.1886" stroke="#94BE74" stroke-width="2" stroke-linecap="round"/>
<path d="M36.7749 8.61377V3.31377C36.7749 2.582 37.3682 1.98877 38.0999 1.98877H44.7249C45.4566 1.98877 46.0499 2.582 46.0499 3.31377V16.5638" stroke="#94BE74" stroke-width="2" stroke-linecap="round"/>
<path d="M6.2998 52.3389V19.2139" stroke="#94BE74" stroke-width="2" stroke-linecap="round"/>
<path d="M48.7 52.3389V19.2139" stroke="#94BE74" stroke-width="2" stroke-linecap="round"/>
<path d="M35.4501 52.3387V39.0887C35.4501 35.341 35.4501 33.4672 34.2859 32.3028C33.1215 31.1387 31.2477 31.1387 27.5 31.1387C23.7524 31.1387 21.8786 31.1387 20.7143 32.3028C19.55 33.4672 19.55 35.341 19.55 39.0887V52.3387" stroke="#94BE74" stroke-width="2"/>
<path d="M32.8002 19.2138C32.8002 22.141 30.4274 24.5138 27.5002 24.5138C24.573 24.5138 22.2002 22.141 22.2002 19.2138C22.2002 16.2867 24.573 13.9138 27.5002 13.9138C30.4274 13.9138 32.8002 16.2867 32.8002 19.2138Z" stroke="#94BE74" stroke-width="2"/>
</svg>
