<svg width="58" height="58" viewBox="0 0 58 58" fill="none" xmlns="http://www.w3.org/2000/svg">
<path d="M28.9068 30.9194C28.7172 30.8923 28.4735 30.8923 28.2569 30.9194C23.4908 30.7567 19.6995 26.8512 19.6995 22.0506C19.6995 17.1417 23.6532 13.1548 28.5818 13.1548C33.4833 13.1548 37.4641 17.1417 37.4641 22.0506C37.437 26.8512 33.6729 30.7567 28.9068 30.9194Z" stroke="#94BE74" stroke-width="2" stroke-linecap="round" stroke-linejoin="round"/>
<path d="M46.814 48.7012C41.999 53.3441 35.615 56.164 28.5819 56.164C21.5487 56.164 15.1648 53.3441 10.3497 48.7012C10.6202 46.0237 12.2433 43.4032 15.1377 41.3524C22.5496 36.1683 34.6683 36.1683 42.0261 41.3524C44.9205 43.4032 46.5435 46.0237 46.814 48.7012Z" stroke="#94BE74" stroke-width="2" stroke-linecap="round" stroke-linejoin="round"/>
<path d="M28.582 56.1639C43.8149 56.1639 56.1639 43.8149 56.1639 28.582C56.1639 13.3489 43.8149 1 28.582 1C13.3489 1 1 13.3489 1 28.582C1 43.8149 13.3489 56.1639 28.582 56.1639Z" stroke="#94BE74" stroke-width="2" stroke-linecap="round" stroke-linejoin="round"/>
</svg>
