<svg width="68" height="45" viewBox="0 0 68 45" fill="none" xmlns="http://www.w3.org/2000/svg">
<path d="M61.9447 11.8977C61.9436 11.6093 62.1764 11.3744 62.4643 11.3733C62.7521 11.3723 62.9866 11.6055 62.9876 11.8939L63.0025 16.013C63.0035 16.3014 62.7707 16.5363 62.4829 16.5373C62.195 16.5383 61.9606 16.3051 61.9595 16.0167L61.9447 11.8977ZM62.4939 19.6114C62.2061 19.6125 61.9733 19.8474 61.9744 20.1358L61.9892 24.2548C61.9902 24.5432 62.2247 24.7764 62.5126 24.7754C62.8004 24.7743 63.0332 24.5394 63.0321 24.2511L63.0173 20.132C63.0163 19.8436 62.7818 19.6104 62.4939 19.6114ZM58.2197 5.93933C59.4248 6.36968 60.4571 7.18414 61.1253 8.23293C61.2795 8.47584 61.602 8.54782 61.8455 8.3923C62.0879 8.23782 62.1598 7.91364 62.0045 7.67073C61.2126 6.42698 59.9931 5.46273 58.5697 4.95584C58.5112 4.93411 58.4517 4.92492 58.3933 4.92513C58.1795 4.9259 57.9797 5.05932 57.9044 5.27276C57.8073 5.54374 57.9481 5.84209 58.2197 5.93933ZM54.515 38.9107L50.4037 38.9255C50.1158 38.9266 49.8831 39.1615 49.8841 39.4499C49.8851 39.7382 50.1196 39.9715 50.4074 39.9704L54.5187 39.9556C54.8066 39.9546 55.0394 39.7197 55.0383 39.4313C55.0373 39.1429 54.8028 38.9097 54.515 38.9107ZM21.6236 39.0292L17.5123 39.044C17.2245 39.0451 16.9917 39.28 16.9927 39.5684C16.9938 39.8567 17.2282 40.09 17.5161 40.0889L21.6274 40.0741C21.9152 40.0731 22.148 39.8382 22.147 39.5498C22.1459 39.2614 21.9115 39.0282 21.6236 39.0292ZM13.7998 38.2894C12.6784 37.6591 11.8082 36.679 11.3504 35.5312C11.2683 35.3267 11.0718 35.202 10.8642 35.2028C10.7996 35.203 10.7349 35.2147 10.6725 35.24C10.4048 35.3476 10.2755 35.6511 10.3818 35.9193C10.9281 37.2882 11.9606 38.4538 13.2889 39.2003C13.5408 39.3415 13.8575 39.2515 13.9995 39.0013C14.1394 38.749 14.0506 38.4306 13.7998 38.2894ZM62.5236 27.8506C62.2358 27.8516 62.003 28.0865 62.004 28.3749L62.0189 32.4939C62.0199 32.7823 62.2544 33.0156 62.5422 33.0145C62.8301 33.0135 63.0629 32.7786 63.0618 32.4902L63.047 28.3711C63.0459 28.0817 62.8115 27.8495 62.5236 27.8506ZM50.2169 5.61603L54.3282 5.60121C54.6161 5.60018 54.8488 5.36527 54.8478 5.07688C54.8468 4.78848 54.6123 4.55527 54.3244 4.5563L50.2132 4.57111C49.9253 4.57215 49.6925 4.80705 49.6936 5.09545C49.6946 5.38384 49.9291 5.61706 50.2169 5.61603ZM61.9752 36.0071C61.8895 35.9542 61.7955 35.9294 61.7017 35.9298C61.5275 35.9304 61.3557 36.0188 61.2583 36.179C60.6103 37.2388 59.5922 38.0721 58.3944 38.5226C58.1247 38.6239 57.9881 38.9254 58.0902 39.1956C58.1924 39.4649 58.4922 39.6027 58.7619 39.5004C60.1764 38.9676 61.3795 37.9811 62.1478 36.7233C62.2971 36.4793 62.2209 36.1578 61.9752 36.0071ZM10.5604 9.65125C10.8278 9.75269 11.1308 9.61785 11.2331 9.34789C11.6701 8.19272 12.5228 7.19696 13.6333 6.54615C13.882 6.40001 13.9654 6.07997 13.8205 5.83075C13.7229 5.66391 13.5474 5.57155 13.368 5.57219C13.2794 5.57251 13.1897 5.59582 13.1075 5.64314C11.792 6.41485 10.7804 7.59927 10.2597 8.97731C10.1554 9.24728 10.291 9.54877 10.5604 9.65125ZM25.5492 5.7049L29.6605 5.69009C29.9483 5.68905 30.1811 5.45415 30.1801 5.16575C30.179 4.87735 29.9446 4.64414 29.6567 4.64517L25.5454 4.65999C25.2576 4.66102 25.0248 4.89592 25.0258 5.18432C25.0269 5.47272 25.2603 5.70594 25.5492 5.7049ZM17.3256 5.73452L21.4369 5.71971C21.7247 5.71868 21.9575 5.48377 21.9565 5.19538C21.9554 4.90698 21.7209 4.67376 21.4331 4.6748L17.3218 4.68961C17.034 4.69065 16.8012 4.92555 16.8022 5.21395C16.8033 5.50234 17.0377 5.73556 17.3256 5.73452ZM29.8462 38.9996L25.7349 39.0144C25.4471 39.0154 25.2143 39.2503 25.2153 39.5387C25.2164 39.8271 25.4508 40.0603 25.7387 40.0593L29.85 40.0445C30.1378 40.0435 30.3706 39.8086 30.3695 39.5202C30.3685 39.2318 30.134 38.9985 29.8462 38.9996ZM46.2913 38.9403L42.1801 38.9551C41.8922 38.9562 41.6594 39.1911 41.6605 39.4795C41.6615 39.7679 41.896 40.0011 42.1838 40.0001L46.2951 39.9852C46.583 39.9842 46.8157 39.7493 46.8147 39.4609C46.8137 39.1725 46.5802 38.9393 46.2913 38.9403ZM33.7718 5.67527L37.8831 5.66046C38.1709 5.65942 38.4037 5.42452 38.4026 5.13613C38.4016 4.84773 38.1671 4.61451 37.8793 4.61555L33.768 4.63036C33.4802 4.6314 33.2474 4.8663 33.2484 5.15469C33.2495 5.44309 33.4829 5.67631 33.7718 5.67527ZM41.9943 5.64565L46.1056 5.63084C46.3935 5.6298 46.6263 5.3949 46.6252 5.1065C46.6242 4.8181 46.3897 4.58489 46.1019 4.58593L41.9906 4.60074C41.7027 4.60178 41.47 4.83667 41.471 5.12507C41.472 5.41347 41.7065 5.64669 41.9943 5.64565ZM38.0688 38.97L33.9575 38.9848C33.6696 38.9858 33.4369 39.2207 33.4379 39.5091C33.4389 39.7975 33.6734 40.0307 33.9612 40.0297L38.0725 40.0149C38.3604 40.0138 38.5932 39.7789 38.5921 39.4905C38.5911 39.2021 38.3577 38.9689 38.0688 38.97ZM4.92121 15.1616L4.89752 8.58598C4.88092 3.97687 8.61054 0.213187 13.211 0.196612L59.4478 0.0300328C64.0483 0.0134586 67.8049 3.75017 67.8215 8.35928L67.9213 36.0557C67.9379 40.6648 64.2083 44.4285 59.6079 44.4451L13.371 44.6117C8.77055 44.6283 5.01391 40.8915 4.9973 36.2824L4.97361 29.7068C2.10094 28.4486 0.0916069 25.6763 0.0799895 22.4517C0.0683721 19.2271 2.05768 16.4405 4.92121 15.1616ZM7.00488 14.5366C7.45829 14.4618 7.92015 14.4131 8.39469 14.4114L9.87254 14.4061L9.86835 13.2431C9.86731 12.9547 10.1001 12.7198 10.3879 12.7187C10.6758 12.7177 10.9103 12.9509 10.9113 13.2393L10.9155 14.4023L17.4339 14.3788C22.0343 14.3622 25.7904 17.9422 25.8063 22.3601C25.8222 26.778 22.092 30.3849 17.4916 30.4015L10.9732 30.425L10.9774 31.5911C10.9785 31.8795 10.7457 32.1144 10.4578 32.1154C10.17 32.1165 9.93551 31.8833 9.93447 31.5949L9.93027 30.4287L8.45242 30.4341C7.97788 30.4358 7.51464 30.3904 7.06174 30.3189L7.0832 36.277C7.09566 39.7346 9.91235 42.5364 13.3635 42.5239L59.6003 42.3574C63.0514 42.3449 65.8479 39.523 65.8354 36.0653L65.7356 8.36888C65.7232 4.91127 62.9065 2.10952 59.4554 2.12195L13.2185 2.28853C9.7674 2.30096 6.97096 5.12293 6.98342 8.58055L7.00488 14.5366ZM2.16588 22.4442C2.17764 25.7096 4.99378 28.3556 8.44488 28.3432L17.4841 28.3106C20.9352 28.2982 23.7322 25.6319 23.7204 22.3666C23.7087 19.1012 20.8925 16.4552 17.4414 16.4676L8.40221 16.5002C4.95111 16.5126 2.15411 19.1789 2.16588 22.4442ZM13.5298 22.4033C13.5225 20.3866 15.1541 18.7402 17.1669 18.7329C19.1798 18.7257 20.8232 20.3603 20.8304 22.377C20.8377 24.3937 19.2062 26.0401 17.1933 26.0473C15.1804 26.0546 13.5371 24.4189 13.5298 22.4033ZM15.6157 22.3958C15.6188 23.2599 16.3232 23.9606 17.1858 23.9575C18.0483 23.9544 18.7476 23.2486 18.7445 22.3845C18.7414 21.5204 18.037 20.8197 17.1745 20.8228C16.312 20.8259 15.6126 21.5316 15.6157 22.3958Z" fill="#94BE74"/>
</svg>
